<?xml version="1.0" encoding="UTF-8"?><svg id="Layer_2" xmlns="http://www.w3.org/2000/svg" viewBox="0 0 644.09 117"><defs><style>.cls-1{fill-rule:evenodd;}</style></defs><g id="Layer_1-2"><g><g><path class="cls-1" d="M60.86,117c11.99-1.04,22.89-5.87,31.53-13.27-1.22-.4-2.42-.94-3.57-1.6-3.13-1.81-5.57-4.38-7.19-7.34-5.89,4.52-13.01,7.52-20.77,8.42v13.8h0Zm50.13-45.62c.6-3.29,.92-6.67,.92-10.12,0-8.45-1.88-16.46-5.23-23.64l-7.09,4.09h-.02l-4.85,2.8c2.22,5.13,3.46,10.79,3.46,16.74,0,1.8-.12,3.57-.34,5.31,3.23-.08,6.51,.64,9.55,2.28l.48,.28c1.13,.65,2.18,1.41,3.12,2.25Z"/><path class="cls-1" d="M5.23,37.62C1.88,44.8,0,52.81,0,61.27c0,3.49,.32,6.91,.93,10.22,.94-.84,1.98-1.59,3.12-2.26l.49-.27c3.02-1.63,6.3-2.37,9.52-2.3-.22-1.77-.34-3.57-.34-5.39,0-5.95,1.23-11.6,3.45-16.74l-6.05-3.49h0s-5.91-3.42-5.91-3.42h0Zm14.38,66.19c8.62,7.36,19.49,12.16,31.44,13.2v-13.8c-7.73-.9-14.83-3.88-20.71-8.37-1.61,2.97-4.04,5.55-7.17,7.36l-.49,.28c-1,.54-2.03,.98-3.08,1.33Z"/><path class="cls-1" d="M37.08,8.57c-10.98,3.94-20.37,11.21-26.96,20.59l5.9,3.41h.02l6.04,3.49c4.49-6.01,10.53-10.8,17.55-13.75-1.83-2.91-2.89-6.35-2.9-10.04,0-1.26,.12-2.5,.34-3.7h0Zm34.93,13.63c7.13,2.93,13.29,7.76,17.83,13.86l4.86-2.81h0s7.09-4.1,7.09-4.1c-6.66-9.48-16.18-16.81-27.32-20.71,.24,1.2,.37,2.44,.38,3.71,0,3.68-1.03,7.12-2.83,10.05Z"/><path class="cls-1" d="M87.39,79.31c1.75-3.02,4.56-5.05,7.68-5.89,3.13-.84,6.57-.48,9.59,1.26l.3,.18c2.85,1.75,4.78,4.48,5.6,7.51,.84,3.12,.48,6.57-1.26,9.59-1.74,3.02-4.55,5.06-7.68,5.9-3.13,.83-6.57,.48-9.59-1.26-3.02-1.75-5.05-4.55-5.89-7.67-.84-3.13-.49-6.58,1.25-9.6Z"/><path class="cls-1" d="M44.84,6.32c1.75-3.02,4.56-5.05,7.68-5.89,3.13-.84,6.57-.48,9.59,1.26l.3,.18c2.85,1.75,4.78,4.48,5.6,7.51,.84,3.12,.48,6.57-1.26,9.59-1.74,3.02-4.55,5.06-7.68,5.9-3.13,.83-6.57,.48-9.59-1.26-3.02-1.75-5.05-4.55-5.89-7.67-.84-3.13-.49-6.58,1.25-9.6Z"/><path class="cls-1" d="M25.44,79.35c1.75,3.03,2.11,6.48,1.28,9.6-.82,3.1-2.83,5.9-5.81,7.65l-.07,.04c-3.02,1.76-6.47,2.11-9.6,1.28-3.08-.82-5.86-2.81-7.61-5.76l-.07-.12c-1.75-3.02-2.12-6.47-1.29-9.59,.83-3.11,2.83-5.9,5.82-7.66l.06-.03c3.02-1.75,6.47-2.11,9.6-1.28,3.12,.83,5.93,2.85,7.69,5.87Z"/><path class="cls-1" d="M34.22,74.39c4,6.93,10.83,11.21,18.19,12.22v-9.91c-3.96-.91-7.55-3.39-9.74-7.19-2.19-3.8-2.55-8.15-1.36-12.03l-8.58-4.96c-2.8,6.88-2.51,14.93,1.49,21.86h0Zm25.08,12.21c3.06-.44,6.1-1.45,8.94-3.09,10.89-6.29,15.23-19.57,10.64-30.91l-8.58,4.96c1.99,6.58-.71,13.91-6.93,17.5-1.3,.75-2.67,1.28-4.06,1.61v9.93h0Zm16.12-39.99c-7.51-9.65-21.18-12.53-32.08-6.24-2.84,1.64-5.24,3.76-7.15,6.19l8.59,4.96c.99-1.04,2.13-1.95,3.43-2.7,6.21-3.59,13.91-2.27,18.62,2.75l8.58-4.96Z"/><path class="cls-1" d="M55.78,52.64c5.07,0,9.18,4.11,9.18,9.18s-4.11,9.18-9.18,9.18-9.18-4.11-9.18-9.18,4.11-9.18,9.18-9.18Z"/></g><g><path d="M185.97,95.73c-7.06,0-13.09-1.49-18.11-4.48-5.02-2.98-8.87-7.22-11.55-12.72-2.68-5.5-4.02-12.04-4.02-19.64s1.34-14.04,4.02-19.54c2.68-5.5,6.53-9.73,11.55-12.72,5.02-2.98,11.06-4.48,18.11-4.48,4.21,0,8.21,.61,12.01,1.83,3.8,1.22,7.09,2.95,9.87,5.19,1.15,.81,1.81,1.76,1.98,2.85,.17,1.09-.02,2.05-.56,2.9-.54,.85-1.31,1.39-2.29,1.63-.98,.24-2.09-.08-3.31-.97-4.82-3.87-10.65-5.8-17.5-5.8-8.07,0-14.25,2.54-18.52,7.63-4.27,5.09-6.41,12.25-6.41,21.47s2.14,16.48,6.41,21.57c4.27,5.09,10.45,7.63,18.52,7.63,6.85,0,12.75-1.97,17.71-5.9,1.22-.81,2.32-1.12,3.31-.92,.98,.2,1.73,.71,2.24,1.53,.51,.81,.69,1.73,.56,2.75-.14,1.02-.71,1.93-1.73,2.75-2.92,2.44-6.28,4.29-10.07,5.55-3.8,1.25-7.87,1.88-12.21,1.88Z"/><path d="M238.17,95.73c-4.88,0-8.62-1.48-11.19-4.43-2.58-2.95-3.87-7.24-3.87-12.87V26.53c0-2.78,1.36-4.17,4.07-4.17s4.17,1.39,4.17,4.17v51.29c0,7.26,2.88,10.89,8.65,10.89,.61,0,1.15-.03,1.63-.1,.47-.07,.95-.1,1.42-.1,.75-.07,1.27,.1,1.58,.51,.31,.41,.46,1.22,.46,2.44,0,2.31-1.15,3.63-3.46,3.97-.54,.14-1.12,.22-1.73,.25-.61,.03-1.19,.05-1.73,.05Z"/><path d="M274.09,95.73c-4.82,0-8.99-1.05-12.52-3.15-3.53-2.1-6.26-5.07-8.19-8.9-1.93-3.83-2.9-8.36-2.9-13.58s.97-9.75,2.9-13.58c1.93-3.83,4.66-6.8,8.19-8.9,3.53-2.1,7.7-3.15,12.52-3.15s8.9,1.05,12.47,3.15c3.56,2.1,6.31,5.07,8.24,8.9,1.93,3.83,2.9,8.36,2.9,13.58s-.97,9.75-2.9,13.58c-1.93,3.83-4.68,6.8-8.24,8.9-3.56,2.1-7.72,3.15-12.47,3.15Zm0-6.61c4.61,0,8.31-1.64,11.09-4.94,2.78-3.29,4.17-7.99,4.17-14.09s-1.39-10.89-4.17-14.14c-2.78-3.26-6.48-4.88-11.09-4.88s-8.4,1.63-11.14,4.88-4.12,7.97-4.12,14.14,1.37,10.8,4.12,14.09c2.75,3.29,6.46,4.94,11.14,4.94Z"/><path d="M328.43,95.73c-11.87,0-17.81-6.55-17.81-19.64v-27.27c0-2.78,1.36-4.17,4.07-4.17s4.17,1.39,4.17,4.17v27.17c0,4.41,.9,7.67,2.7,9.77,1.8,2.1,4.63,3.15,8.5,3.15,4.21,0,7.63-1.41,10.28-4.22,2.65-2.81,3.97-6.56,3.97-11.24v-24.63c0-2.78,1.39-4.17,4.17-4.17s4.07,1.39,4.07,4.17v42.43c0,2.85-1.32,4.27-3.97,4.27s-4.07-1.42-4.07-4.27v-4.78c-1.56,2.99-3.75,5.28-6.56,6.87-2.82,1.59-5.99,2.39-9.51,2.39Z"/><path d="M387.65,95.73c-4.41,0-8.26-1.05-11.55-3.15-3.29-2.1-5.83-5.07-7.63-8.9-1.8-3.83-2.7-8.36-2.7-13.58s.9-9.85,2.7-13.69c1.8-3.83,4.34-6.78,7.63-8.85,3.29-2.07,7.14-3.1,11.55-3.1,3.87,0,7.28,.85,10.23,2.54,2.95,1.7,5.14,4.04,6.56,7.02V26.53c0-2.78,1.39-4.17,4.17-4.17s4.07,1.39,4.07,4.17V91.25c0,2.85-1.36,4.27-4.07,4.27s-4.07-1.42-4.07-4.27v-5.29c-1.49,3.05-3.71,5.44-6.67,7.17-2.95,1.73-6.36,2.59-10.23,2.59Zm1.73-6.61c4.61,0,8.31-1.64,11.09-4.94,2.78-3.29,4.17-7.99,4.17-14.09s-1.39-10.89-4.17-14.14c-2.78-3.26-6.48-4.88-11.09-4.88s-8.4,1.63-11.14,4.88-4.12,7.97-4.12,14.14,1.37,10.8,4.12,14.09c2.75,3.29,6.46,4.94,11.14,4.94Z"/><path d="M428.56,95.53c-1.63,0-2.75-.54-3.36-1.63-.61-1.08-.54-2.44,.2-4.07l27.98-63.7c1.08-2.51,2.75-3.77,4.99-3.77,1.02,0,1.95,.29,2.8,.87,.85,.58,1.54,1.54,2.09,2.9l28.09,63.7c.75,1.63,.85,2.99,.31,4.07-.54,1.08-1.63,1.63-3.26,1.63-1.22,0-2.21-.32-2.95-.97-.75-.64-1.36-1.58-1.83-2.8l-6.61-15.26h-37.35l-6.51,15.26c-1.09,2.51-2.61,3.76-4.58,3.76Zm29.71-62.68l-15.57,36.63h31.34l-15.57-36.63h-.2Z"/><path d="M524.42,95.73c-4.95,0-9.23-1.07-12.82-3.21-3.6-2.14-6.36-5.15-8.29-9.06-1.93-3.9-2.9-8.46-2.9-13.69,0-7.87,2.14-14.06,6.41-18.57,4.27-4.51,10.14-6.77,17.6-6.77,2.44,0,4.99,.39,7.63,1.17,2.65,.78,5.05,2.05,7.23,3.82,1.15,.81,1.64,1.83,1.48,3.05-.17,1.22-.75,2.14-1.73,2.75-.98,.61-2.12,.47-3.41-.41-1.83-1.36-3.65-2.31-5.44-2.85-1.8-.54-3.55-.81-5.24-.81-5.16,0-9.12,1.61-11.91,4.83-2.78,3.22-4.17,7.85-4.17,13.89s1.39,10.57,4.17,13.99c2.78,3.43,6.75,5.14,11.91,5.14,1.69,0,3.44-.27,5.24-.81,1.8-.54,3.61-1.49,5.44-2.85,1.29-.88,2.41-1,3.36-.36,.95,.65,1.48,1.58,1.58,2.8,.1,1.22-.39,2.21-1.48,2.95-2.17,1.76-4.55,3.04-7.12,3.82-2.58,.78-5.09,1.17-7.53,1.17Z"/><path d="M571.23,95.73c-5.83,0-10.21-1.54-13.13-4.63-2.92-3.09-4.38-7.55-4.38-13.38v-25.95h-6.82c-2.38,0-3.56-1.08-3.56-3.26s1.19-3.15,3.56-3.15h6.82v-11.7c0-2.78,1.39-4.17,4.17-4.17s4.07,1.39,4.07,4.17v11.7h12.82c2.37,0,3.56,1.05,3.56,3.15s-1.19,3.26-3.56,3.26h-12.82v25.13c0,3.87,.81,6.8,2.44,8.8,1.63,2,4.27,3,7.94,3,1.29,0,2.37-.13,3.26-.41,.88-.27,1.66-.41,2.34-.41,.61-.07,1.12,.14,1.53,.61,.41,.48,.61,1.29,.61,2.44,0,.81-.15,1.56-.46,2.24-.31,.68-.83,1.15-1.58,1.42-.81,.27-1.88,.52-3.21,.76-1.32,.24-2.53,.36-3.61,.36Z"/></g><g><path d="M610.14,53.19c-2.26,0-4.28-.44-6.05-1.31-1.77-.87-3.16-2.06-4.16-3.55-1-1.49-1.51-3.18-1.51-5.06,0-2.31,.6-4.13,1.79-5.48,1.19-1.34,3.14-2.32,5.83-2.91,2.69-.6,6.3-.9,10.82-.9h2.24v-1.34c0-2.13-.47-3.67-1.41-4.61-.94-.94-2.52-1.41-4.74-1.41-1.24,0-2.57,.15-4,.45-1.43,.3-2.94,.81-4.52,1.54-1.02,.47-1.88,.52-2.56,.16-.68-.36-1.14-.94-1.38-1.73-.23-.79-.19-1.59,.13-2.4,.32-.81,.97-1.41,1.95-1.79,1.96-.81,3.85-1.39,5.67-1.73,1.81-.34,3.47-.51,4.96-.51,4.57,0,7.96,1.06,10.18,3.17,2.22,2.11,3.33,5.39,3.33,9.83v15.37c0,2.73-1.24,4.1-3.71,4.1s-3.78-1.37-3.78-4.1v-1.41c-.73,1.75-1.88,3.13-3.46,4.13-1.58,1-3.46,1.5-5.64,1.5Zm1.67-5.51c2.09,0,3.83-.72,5.22-2.18,1.39-1.45,2.08-3.29,2.08-5.51v-1.41h-2.18c-4.01,0-6.8,.31-8.36,.93-1.56,.62-2.34,1.74-2.34,3.36,0,1.41,.49,2.56,1.47,3.46,.98,.9,2.35,1.34,4.1,1.34Z"/><path d="M639.35,14.83c-1.5,0-2.66-.37-3.49-1.12-.83-.75-1.25-1.78-1.25-3.11s.42-2.41,1.25-3.14c.83-.73,2-1.09,3.49-1.09,3.16,0,4.74,1.41,4.74,4.23s-1.58,4.23-4.74,4.23Zm0,38.17c-1.28,0-2.26-.38-2.95-1.15-.68-.77-1.02-1.84-1.02-3.2V25.14c0-2.9,1.32-4.36,3.97-4.36s4.04,1.45,4.04,4.36v23.51c0,1.37-.34,2.43-1.02,3.2-.68,.77-1.69,1.15-3.01,1.15Z"/></g></g></g></svg>