<svg xmlns="http://www.w3.org/2000/svg" viewBox="0 0 24 24">
  <path fill="#FF9900" d="M6.763 10.036c0 .296.032.535.088.71.064.176.144.368.256.576.04.063.056.127.056.183 0 .08-.048.16-.152.24l-.503.335a.383.383 0 01-.208.072c-.08 0-.16-.04-.239-.112a2.47 2.47 0 01-.287-.375 6.18 6.18 0 01-.248-.471c-.622.734-1.405 1.101-2.347 1.101-.67 0-1.205-.191-1.596-.574-.392-.382-.591-.893-.591-1.533 0-.678.239-1.23.726-1.644.487-.415 1.133-.623 1.955-.623.272 0 .551.024.846.064.296.04.6.104.918.176v-.583c0-.607-.127-1.03-.375-1.277-.255-.248-.686-.367-1.3-.367-.28 0-.568.031-.863.103a6.395 6.395 0 00-.862.279 2.274 2.274 0 01-.28.104.488.488 0 01-.127.023c-.112 0-.168-.08-.168-.247v-.391c0-.128.016-.224.056-.28a.597.597 0 01.224-.167c.279-.144.614-.264 1.005-.36a4.84 4.84 0 011.246-.151c.95 0 1.644.216 2.091.647.44.43.662 1.085.662 1.963v2.586zm-3.24 1.214c.263 0 .534-.048.822-.144.287-.096.543-.271.758-.51.128-.152.224-.32.272-.512.047-.191.08-.423.08-.694v-.335a6.66 6.66 0 00-.735-.136 6.02 6.02 0 00-.75-.048c-.535 0-.926.104-1.19.32-.263.215-.39.518-.39.917 0 .375.095.654.295.846.191.2.47.296.838.296zm6.41.862c-.144 0-.24-.024-.304-.08-.064-.048-.12-.16-.168-.311L7.586 5.55a1.398 1.398 0 01-.072-.343c0-.136.068-.21.204-.21h.783c.151 0 .255.024.31.08.065.048.113.16.16.312l1.342 5.284 1.245-5.284c.04-.16.088-.264.151-.312a.549.549 0 01.32-.08h.638c.152 0 .256.024.32.08.063.048.12.16.151.312l1.261 5.348 1.381-5.348c.048-.16.104-.264.16-.312a.52.52 0 01.311-.08h.743c.136 0 .212.068.212.21 0 .04-.008.088-.016.136a1.18 1.18 0 01-.056.215l-1.918 6.17c-.048.16-.104.264-.168.311a.51.51 0 01-.303.08h-.687c-.151 0-.255-.024-.319-.08-.064-.056-.12-.16-.151-.32l-1.238-5.148-1.23 5.14c-.04.16-.087.264-.15.32-.065.056-.177.08-.32.08zm10.256.215c-.415 0-.83-.048-1.229-.143-.399-.096-.71-.2-.918-.32-.128-.071-.215-.151-.247-.223a.563.563 0 01-.048-.224v-.407c0-.167.064-.247.183-.247.048 0 .096.008.144.024.048.016.12.048.2.08.271.12.566.215.878.279.319.064.63.096.95.096.503 0 .894-.088 1.166-.264a.856.856 0 00.415-.758.777.777 0 00-.215-.559c-.144-.151-.416-.287-.807-.415l-1.157-.36c-.583-.183-1.014-.454-1.277-.806a1.902 1.902 0 01-.4-1.158c0-.335.073-.63.216-.886.144-.255.335-.479.575-.654.24-.184.51-.32.83-.415.32-.096.655-.136 1.006-.136.176 0 .359.008.535.032.183.024.35.056.518.088.16.04.312.08.455.127.144.048.256.096.336.144a.69.69 0 01.24.2.43.43 0 01.071.263v.375c0 .168-.064.256-.184.256a.83.83 0 01-.303-.096 3.652 3.652 0 00-1.532-.311c-.455 0-.815.071-1.062.223-.248.152-.375.383-.375.71 0 .224.08.416.24.567.159.152.454.304.877.44l1.134.358c.574.184.99.44 1.237.767.247.327.367.702.367 1.117 0 .343-.072.655-.207.926-.144.272-.336.511-.583.703-.248.2-.543.343-.886.447-.36.111-.734.167-1.142.167z"/>
  <path fill="#FF9900" d="M21.725 16.943c-2.667 1.97-6.54 3.017-9.87 3.017-4.669 0-8.877-1.727-12.056-4.603-.25-.226-.027-.534.274-.358 3.435 2 7.681 3.203 12.07 3.203 2.96 0 6.214-.614 9.21-1.886.452-.192.831.297.372.627z"/>
  <path fill="#FF9900" d="M22.788 15.73c-.34-.436-2.254-.207-3.113-.105-.261.032-.301-.196-.066-.36 1.524-1.072 4.023-.762 4.314-.403.292.366-.076 2.883-1.506 4.085-.22.185-.43.086-.332-.159.322-.804 1.044-2.622.703-3.058z"/>
</svg>
