<svg xmlns="http://www.w3.org/2000/svg" viewBox="0 0 24 24">
  <path fill="#4285F4" d="M12.19 2.38a9.344 9.344 0 0 0-9.234 6.893c.053-.02-.055.013 0 0-3.875 2.551-3.922 8.11-.247 10.941l.006-.007-.007.03a6.717 6.717 0 0 0 4.077 1.356h5.173l.03.03h5.192c6.687.053 9.376-8.605 3.835-12.35a9.365 9.365 0 0 0-8.825-6.893zm.142 3.028a6.327 6.327 0 0 1 6.119 4.725h-.004l.025.078a3.205 3.205 0 0 1 1.593 5.839 3.192 3.192 0 0 1-1.927.612H6.77a3.69 3.69 0 0 1-2.247-.749 3.727 3.727 0 0 1 2.294-6.628 3.707 3.707 0 0 1 .949.123 6.345 6.345 0 0 1 4.566-4z"/>
</svg>
