<svg xmlns="http://www.w3.org/2000/svg" viewBox="0 0 24 24">
  <path fill="#4285F4" d="M12.65 8.25h5.62c.24 1.02.37 2.1.37 3.22 0 4.5-3.07 7.53-6.74 7.53-3.87 0-7.02-3.15-7.02-7.02s3.15-7.02 7.02-7.02c1.85 0 3.53.72 4.78 1.89l-1.93 1.93C14.02 8.17 13.2 7.84 12.27 7.84c-2.33 0-4.22 1.89-4.22 4.22s1.89 4.22 4.22 4.22c2.08 0 3.48-1.17 3.84-2.86h-3.46V8.25z"/>
  <path fill="#EA4335" d="M19.64 12.18l2.02-2.02c.23.65.41 1.32.53 2.02h-2.55z"/>
  <path fill="#FBBC05" d="M12.27 4.96c1.85 0 3.53.72 4.78 1.89l1.93-1.93C17.28 3.36 14.94 2.34 12.27 2.34c-4.18 0-7.77 2.59-9.23 6.25l2.33 1.8c.66-2.76 3.13-4.83 6.9-5.43z"/>
  <path fill="#34A853" d="M4.88 11.98c0-.64.1-1.26.28-1.84l-2.33-1.8c-.57 1.11-.96 2.33-.96 3.64 0 1.31.39 2.53.96 3.64l2.33-1.8c-.18-.58-.28-1.2-.28-1.84z"/>
  <path fill="#EA4335" d="M12.27 19c2.67 0 5.01-1.02 6.71-2.58l-2.02-2.02c-.93.76-2.12 1.2-3.47 1.2-2.77 0-5.12-1.87-5.96-4.4l-2.33 1.8c1.46 2.88 4.44 5 8.07 5z"/>
</svg>
