<?xml version="1.0" encoding="UTF-8"?><svg id="Layer_2" xmlns="http://www.w3.org/2000/svg" viewBox="0 0 149.4 156.2"><defs><style>.cls-1{fill-rule:evenodd;}</style></defs><g id="Layer_1-2"><g><path class="cls-1" d="M81.25,156.2c16.01-1.39,30.56-7.83,42.09-17.72-1.63-.53-3.23-1.25-4.77-2.14-4.18-2.42-7.43-5.84-9.59-9.8-7.86,6.03-17.37,10.04-27.73,11.24v18.42h0Zm66.93-60.91c.8-4.39,1.23-8.9,1.23-13.5,0-11.27-2.51-21.97-6.98-31.56l-9.46,5.46h-.03l-6.47,3.74c2.97,6.85,4.62,14.4,4.62,22.35,0,2.4-.16,4.77-.45,7.09,4.31-.11,8.69,.86,12.75,3.04l.64,.37c1.52,.87,2.9,1.88,4.16,3Z"/><path class="cls-1" d="M6.98,50.22C2.51,59.8,0,70.5,0,81.79c0,4.65,.43,9.22,1.25,13.65,1.26-1.12,2.65-2.13,4.17-3.02l.66-.36c4.03-2.18,8.41-3.16,12.72-3.06-.3-2.36-.46-4.76-.46-7.2,0-7.94,1.65-15.49,4.6-22.34l-8.07-4.66h.01s-7.89-4.57-7.89-4.57h0Zm19.2,88.36c11.5,9.83,26.02,16.23,41.98,17.62v-18.42c-10.33-1.2-19.8-5.18-27.65-11.18-2.15,3.97-5.39,7.4-9.57,9.83l-.65,.37c-1.34,.72-2.71,1.31-4.11,1.77Z"/><path class="cls-1" d="M49.5,11.45c-14.66,5.26-27.19,14.96-35.99,27.49l7.87,4.55h.03l8.06,4.65c6-8.03,14.06-14.41,23.43-18.35-2.44-3.88-3.86-8.48-3.87-13.4-.01-1.69,.16-3.33,.46-4.93h0Zm46.63,18.19c9.52,3.91,17.74,10.36,23.8,18.51l6.49-3.75h0s9.47-5.48,9.47-5.48c-8.89-12.66-21.6-22.44-36.47-27.65,.32,1.6,.49,3.25,.5,4.95,0,4.92-1.37,9.51-3.78,13.42Z"/><path class="cls-1" d="M116.67,105.87c2.33-4.03,6.09-6.75,10.25-7.86,4.17-1.11,8.77-.64,12.81,1.68l.4,.24c3.81,2.34,6.39,5.98,7.47,10.02,1.12,4.17,.63,8.78-1.69,12.8-2.32,4.04-6.07,6.75-10.25,7.87-4.17,1.11-8.77,.64-12.8-1.69-4.04-2.33-6.75-6.08-7.86-10.25-1.12-4.18-.65-8.79,1.67-12.82Z"/><path class="cls-1" d="M59.86,8.44c2.33-4.03,6.09-6.75,10.25-7.86,4.17-1.11,8.77-.64,12.81,1.68l.4,.24c3.81,2.34,6.39,5.98,7.47,10.02,1.12,4.17,.63,8.78-1.69,12.8-2.32,4.04-6.07,6.75-10.25,7.87-4.17,1.11-8.77,.64-12.8-1.69-4.04-2.33-6.75-6.08-7.86-10.25-1.12-4.18-.65-8.79,1.67-12.82Z"/><path class="cls-1" d="M33.96,105.93c2.33,4.04,2.82,8.65,1.71,12.82-1.1,4.14-3.77,7.87-7.75,10.21l-.09,.05c-4.03,2.34-8.64,2.82-12.81,1.71-4.12-1.09-7.82-3.75-10.16-7.69l-.09-.16c-2.34-4.03-2.83-8.64-1.72-12.81,1.11-4.15,3.78-7.88,7.77-10.22l.07-.04c4.04-2.34,8.64-2.82,12.82-1.71,4.17,1.11,7.92,3.81,10.26,7.83Z"/><path class="cls-1" d="M45.68,99.31c5.34,9.25,14.46,14.96,24.29,16.31v-13.23c-5.29-1.21-10.08-4.53-13-9.6-2.93-5.07-3.41-10.87-1.82-16.05l-11.45-6.62c-3.74,9.18-3.35,19.93,1.99,29.18h0Zm33.48,16.3c4.09-.59,8.14-1.94,11.94-4.13,14.54-8.4,20.34-26.13,14.2-41.26l-11.46,6.62c2.66,8.79-.95,18.57-9.25,23.36-1.74,1-3.57,1.71-5.42,2.16v13.25h0Zm21.51-53.38c-10.03-12.88-28.28-16.73-42.82-8.33-3.79,2.19-6.99,5.02-9.54,8.26l11.47,6.62c1.32-1.38,2.84-2.61,4.58-3.61,8.29-4.79,18.57-3.03,24.85,3.67l11.46-6.62Z"/><path class="cls-1" d="M74.47,70.27c6.77,0,12.26,5.49,12.26,12.26s-5.49,12.26-12.26,12.26-12.26-5.49-12.26-12.26,5.49-12.26,12.26-12.26Z"/></g></g></svg>